<?xml version="1.0" encoding="UTF-8"?>
<svg width="20px" height="20px" viewBox="0 0 20 20" version="1.1" xmlns="http://www.w3.org/2000/svg" xmlns:xlink="http://www.w3.org/1999/xlink">
    <!-- Generator: Sketch 44.1 (41455) - http://www.bohemiancoding.com/sketch -->
    <title>投资</title>
    <desc>Created with Sketch.</desc>
    <defs></defs>
    <g id="列表页等" stroke="none" stroke-width="1" fill="none" fill-rule="evenodd">
        <g id="导航图标-copy-2" transform="translate(-126.000000, 0.000000)" fill="#999999">
            <g id="投资" transform="translate(126.000000, 0.000000)">
                <rect id="Path" opacity="0" x="0" y="0" width="20" height="20"></rect>
                <g>
                    <path d="M17.8521348,3.80708438 C16.0207773,1.48823995 13.1841872,4.22772928e-13 10,4.22772928e-13 C4.4771525,4.22772928e-13 0,4.4771525 0,10 C0,15.5228475 4.4771525,20 10,20 C15.5228475,20 20,15.5228475 20,10 C20,9.1816008 19.9016881,8.38616359 19.7162299,7.62485403 L18.261717,7.99315754 C18.4174672,8.63661812 18.5,9.30867077 18.5,10 C18.5,14.6944204 14.6944204,18.5 10,18.5 C5.30557963,18.5 1.5,14.6944204 1.5,10 C1.5,5.30557963 5.30557963,1.5 10,1.5 C12.6962671,1.5 15.0993194,2.75540157 16.6565194,4.71356724 L17.8521348,3.80708438 Z" id="Combined-Shape"></path>
                    <circle id="Oval-2" transform="translate(17.271133, 4.282547) rotate(-36.000000) translate(-17.271133, -4.282547) " cx="17.2711334" cy="4.282547" r="1"></circle>
                    <circle id="Oval-2-Copy" transform="translate(18.977010, 7.766241) rotate(-11.000000) translate(-18.977010, -7.766241) " cx="18.9770102" cy="7.76624059" r="1"></circle>
                    <path d="M12.9285366,10.2367297 C13.322882,10.2367297 13.6416285,9.91681338 13.6416285,9.52264323 C13.6416285,9.12847308 13.322882,8.80855676 12.9285366,8.80855676 L10.7650268,8.80855676 L10.7650268,8.47078828 L13.4077566,5.70657628 C13.6794279,5.4209417 13.6751661,4.96891938 13.3899293,4.69684128 C13.1061132,4.42548842 12.6582859,4.43550237 12.3851661,4.7218343 L10.1210992,7.10473528 L7.72368976,4.70897517 C7.44416329,4.4297841 6.99349477,4.43120669 6.71538892,4.71042566 C6.43728307,4.98961673 6.42371761,5.44163905 6.7025477,5.72013277 L9.33884296,8.36724574 L9.33884296,8.80855676 L7.22667026,8.80855676 C6.83304909,8.80855676 6.51357834,9.12847308 6.51357834,9.52264323 C6.51357834,9.91681338 6.83304909,10.2367297 7.22667026,10.2367297 L9.33884296,10.2367297 L9.33884296,11.6649026 L7.22667026,11.6649026 C6.83304909,11.6649026 6.51357834,11.9840937 6.51357834,12.3789891 C6.51357834,12.7738845 6.83304909,13.0930756 7.22667026,13.0930756 L9.33884296,13.0930756 L9.33884296,15.2160602 C9.33884296,15.6109556 9.65831371,15.9301467 10.0519349,15.9301467 C10.4455561,15.9301467 10.7650268,15.6109556 10.7650268,15.2160602 L10.7650268,13.0930756 L12.9285366,13.0930756 C13.322882,13.0930756 13.6416285,12.7738845 13.6416285,12.3789891 C13.6416285,11.9840937 13.322882,11.6649026 12.9285366,11.6649026 L10.7650268,11.6649026 L10.7650268,10.2367297 L12.9285366,10.2367297" id="Fill-2"></path>
                </g>
            </g>
        </g>
    </g>
</svg>