<?xml version="1.0" encoding="UTF-8"?>
<svg width="20px" height="19px" viewBox="0 0 20 19" version="1.1" xmlns="http://www.w3.org/2000/svg" xmlns:xlink="http://www.w3.org/1999/xlink">
    <!-- Generator: Sketch 44.1 (41455) - http://www.bohemiancoding.com/sketch -->
    <title>首页2</title>
    <desc>Created with Sketch.</desc>
    <defs></defs>
    <g id="列表页等" stroke="none" stroke-width="1" fill="none" fill-rule="evenodd">
        <g id="导航图标" transform="translate(0.000000, -2.000000)">
            <g id="首页2" transform="translate(0.000000, 1.000000)">
                <path d="M0.753064554,9.80842912 C0.538849834,9.80842912 0.324635113,9.73563218 0.181825299,9.51724138 C-0.103794329,9.22605364 -0.0323894216,8.7164751 0.253230206,8.49808429 L8.67900922,1.43678161 C9.4644632,0.85440613 10.6069417,0.85440613 11.3209908,1.43678161 L19.7467698,8.42528736 C20.0323894,8.64367816 20.1037943,9.1532567 19.8181747,9.44444444 C19.5325551,9.73563218 19.1041256,9.80842912 18.818506,9.51724138 L10.4641319,2.6743295 C10.2499172,2.52873563 9.82148773,2.52873563 9.60727301,2.6743295 L1.181494,9.66283525 C1.03868418,9.80842912 0.895874368,9.80842912 0.753064554,9.80842912 Z M12.1778497,20 C11.7494202,20 11.4638006,19.7088123 11.4638006,19.2720307 L11.4638006,15.8505747 C11.4638006,15.3409962 10.6069417,14.8314176 9.96429755,14.8314176 C9.32165338,14.8314176 8.53619941,15.2681992 8.53619941,15.8505747 L8.53619941,19.2720307 C8.53619941,19.7088123 8.25057978,20 7.82215034,20 L3.3236412,20 C2.2525676,20 1.46711362,19.1992337 1.46711362,18.1800766 L1.46711362,11.2643678 C1.46711362,10.8275862 1.75273325,10.5363985 2.18116269,10.5363985 C2.60959213,10.5363985 2.89521176,10.8275862 2.89521176,11.2643678 L2.89521176,18.1800766 C2.89521176,18.3984674 3.03802158,18.5440613 3.3236412,18.5440613 L7.17950618,18.5440613 L7.17950618,15.8505747 C7.17950618,14.394636 8.67900922,13.3754789 10.0357025,13.3754789 C11.3923957,13.3754789 12.9633036,14.394636 12.9633036,15.8505747 L12.9633036,18.5440613 L16.8905735,18.5440613 C17.1047882,18.5440613 17.2475981,18.5440613 17.2475981,18.1072797 L17.2475981,11.2643678 C17.2475981,10.8275862 17.5332177,10.5363985 17.9616471,10.5363985 C18.3900766,10.5363985 18.6756962,10.8275862 18.6756962,11.2643678 L18.6756962,18.1800766 C18.6042913,19.2720307 17.8902422,20 16.8191686,20 L12.1778497,20 Z" id="home" fill="#999999"></path>
                <rect id="Rectangle-16" fill="#D8D8D8" opacity="0" x="0" y="0" width="20" height="20"></rect>
            </g>
        </g>
    </g>
</svg>