<?xml version="1.0" encoding="UTF-8"?>
<svg width="20px" height="19px" viewBox="0 0 20 19" version="1.1" xmlns="http://www.w3.org/2000/svg" xmlns:xlink="http://www.w3.org/1999/xlink">
    <!-- Generator: Sketch 44.1 (41455) - http://www.bohemiancoding.com/sketch -->
    <title>首页</title>
    <desc>Created with Sketch.</desc>
    <defs>
        <linearGradient x1="0%" y1="0%" x2="98.4427083%" y2="100%" id="linearGradient-1">
            <stop stop-color="#FE654D" offset="0%"></stop>
            <stop stop-color="#FF3D4F" offset="98.4853316%"></stop>
        </linearGradient>
    </defs>
    <g id="列表页等" stroke="none" stroke-width="1" fill="none" fill-rule="evenodd">
        <g id="导航图标-copy-2" transform="translate(0.000000, -3.000000)">
            <g id="首页" transform="translate(0.000000, 2.000000)">
                <rect id="Rectangle-15" fill="#D8D8D8" opacity="0" x="0" y="0" width="20" height="20"></rect>
                <path d="M11.3425321,1.43846154 C10.6291653,0.853846154 9.41644171,0.853846154 8.70307492,1.43846154 L0.285346719,8.52692308 C3.22859045e-17,8.67307692 -0.0713366797,9.03846154 0.0713366797,9.33076923 C0.142673359,9.62307692 0.428020078,9.76923077 0.713366797,9.76923077 L1.42673359,9.76923077 L1.42673359,18.1 C1.42673359,19.1961538 2.21143707,20 3.28148726,20 L7.71860159,20 C8.14662166,20 8.43196838,19.7076923 8.43196838,19.2692308 L8.43196838,15.9076923 C8.43196838,15.2469876 9.34510503,14.8846154 9.98713515,14.8846154 C10.6291653,14.8846154 11.6136386,15.2076435 11.6136386,15.9076923 L11.6136386,19.2692308 C11.6136386,19.7076923 11.8989853,20 12.3270054,20 L16.8354564,20 C17.9055066,20 18.6188734,19.2692308 18.6188734,18.1 L18.6188734,9.76923077 L19.3322402,9.76923077 C19.6175869,9.76923077 19.9029336,9.55 19.9742703,9.25769231 C20.045607,8.96538462 19.9742703,8.67307692 19.6889236,8.45384615 L11.3425321,1.43846154 Z" id="home_fill" fill="url(#linearGradient-1)"></path>
            </g>
        </g>
    </g>
</svg>