<?xml version="1.0" encoding="UTF-8"?>
<svg width="17px" height="18px" viewBox="0 0 17 18" version="1.1" xmlns="http://www.w3.org/2000/svg" xmlns:xlink="http://www.w3.org/1999/xlink">
    <!-- Generator: Sketch 44.1 (41455) - http://www.bohemiancoding.com/sketch -->
    <title>我的2</title>
    <desc>Created with Sketch.</desc>
    <defs></defs>
    <g id="列表页等" stroke="none" stroke-width="1" fill="none" fill-rule="evenodd">
        <g id="导航图标" transform="translate(-253.000000, -2.000000)">
            <g id="我的2" transform="translate(251.000000, 1.000000)">
                <path d="M16.6381436,7 C16.6381436,3.7 13.8527495,1 10.448379,1 C7.0440084,1 4.2586143,3.7 4.2586143,7 C4.2586143,9.175 5.49656723,11.05 7.27612457,12.1 C4.72284665,13.15 2.63380108,15.325 2.01482462,18.1 C1.93745256,18.475 2.16956873,18.925 2.55642903,19 L2.71117314,19 C3.09803343,19 3.40752166,18.775 3.48489372,18.4 C4.2586143,15.25 7.19875251,12.925 10.448379,12.925 L10.525751,12.925 C13.9301216,12.925 16.6381436,10.225 16.6381436,7 Z M5.80605547,7 C5.80605547,4.525 7.89510104,2.5 10.448379,2.5 C13.0016569,2.5 15.0907024,4.525 15.0907024,7 C15.0907024,9.475 13.0016569,11.5 10.448379,11.5 C7.89510104,11.5 5.80605547,9.475 5.80605547,7 Z M16.0133304,13.672973 C15.6264701,13.447973 15.1622377,13.522973 14.9301216,13.897973 C14.6980054,14.272973 14.7753775,14.722973 15.1622377,14.947973 L15.6264701,15.247973 C16.4775627,15.7949615 17.102376,16.75 17.4892362,18.4 C17.5666083,18.775 17.8760965,19 18.2629568,19 L18.4177009,19 C18.8045612,18.925 19.1140495,18.475 18.9593053,18.1 C18.4177009,16 17.6031494,14.7697292 16.4775627,13.972973 L16.0133304,13.672973 Z" id="friend" fill="#999999"></path>
                <rect id="Rectangle-16-Copy" fill="#D8D8D8" opacity="0" x="0" y="0" width="20" height="20"></rect>
            </g>
        </g>
    </g>
</svg>